<svg width="100" height="100" viewBox="0 0 100 100" fill="none" xmlns="http://www.w3.org/2000/svg">
<path d="M27.8441 62.4609V58.0653H36.5318L39.3612 41.7816H30.7469V37.2861H40.131L42.4333 23.2002H47.7558L45.3535 37.2861H58.8493L61.1516 23.2002H66.47L64.1677 37.2861H72.1874V41.7816H63.3996L60.5702 58.0653H69.2846V62.4609H59.899L57.4966 76.8465H52.2777L54.6801 62.4609H41.1807L38.7783 76.8465H33.5635L35.8657 62.4609H27.8441ZM58.0862 41.7816H44.4859L41.8452 58.0653H55.4455L58.0862 41.7816Z" fill="black"/>
<path fill-rule="evenodd" clip-rule="evenodd" d="M50 100C65.2155 100 79.6045 93.072 89.0914 81.1753L85.3406 78.1845C76.7633 88.9391 63.7562 95.203 50 95.203V100Z" fill="#D0021B"/>
<path fill-rule="evenodd" clip-rule="evenodd" d="M89.0915 81.1753C98.5784 69.2786 102.132 53.7085 98.7463 38.8746L94.0693 39.941C97.1301 53.3524 93.918 67.4299 85.3407 78.1845L89.0915 81.1753Z" fill="#790412"/>
<path fill-rule="evenodd" clip-rule="evenodd" d="M98.746 38.8745C95.3604 24.0405 85.4012 11.5535 71.6931 4.95199L69.6119 9.27302C82.0065 15.2417 91.0081 26.5295 94.0689 39.9409L98.746 38.8745Z" fill="#6F6F96"/>
<path fill-rule="evenodd" clip-rule="evenodd" d="M71.6934 4.95192C57.9852 -1.64956 42.0151 -1.64956 28.3069 4.95192L30.3881 9.27295C42.7826 3.30431 57.2177 3.30431 69.6123 9.27295L71.6934 4.95192Z" fill="#60BAD5"/>
<path fill-rule="evenodd" clip-rule="evenodd" d="M28.3066 4.95199C14.5984 11.5535 4.6392 24.0405 1.25367 38.8745L5.93068 39.9409C8.9915 26.5295 17.9931 15.2417 30.3877 9.27302L28.3066 4.95199Z" fill="#1498BE"/>
<path fill-rule="evenodd" clip-rule="evenodd" d="M1.25386 38.8745C-2.13168 53.7085 1.42175 69.2786 10.9086 81.1753L14.6595 78.1845C6.08216 67.4299 2.87006 53.3524 5.93087 39.941L1.25386 38.8745Z" fill="#899E2A"/>
<path fill-rule="evenodd" clip-rule="evenodd" d="M10.9086 81.1753C20.3955 93.072 34.7844 100 50 100V95.203C36.2438 95.203 23.2367 88.9391 14.6594 78.1845L10.9086 81.1753Z" fill="#F9DA1C"/>
</svg>
